#!OML:ASF H:\ManfredObstacles\Project 1\Capture day 1\Session 1\Male.ASF
:FULLY-SPECIFIED
:DEGREES
498
root 0.496449 16.4766 -14.863 -172.127 -4.38733 -181.853
lowerback -9.54389 -2.60403 -4.35068
upperback 3.81713 -2.98222 0.369248
thorax 9.70873 -1.73889 2.30361
lowerneck -0.898902 -2.01601 -6.57878
upperneck -3.80796 -2.23041 9.93295
head -0.859242 -1.04213 4.47397
rclavicle -3.04513e-014 1.35422e-015
rhumerus -37.3363 -23.5674 -74.083
rradius 26.7826
rwrist 35.5603
rhand -1.02562 -3.34538
rfingers 7.12502
rthumb 24.6077 -31.7836
lclavicle -3.04513e-014 1.35422e-015
lhumerus -18.2028 5.71168 90.0185
lradius 19.9622
lwrist -26.1061
lhand -8.52426 8.45829
lfingers 7.12502
lthumb 17.4043 37.6991
rfemur -37.5979 -4.24939 14.2987
rtibia 37.2153
rfoot -15.0599 5.70286
rtoes 1.87553
lfemur -8.07294 2.09094 -25.1639
ltibia 15.3995
lfoot -3.87756 -19.7181
ltoes 8.54553
499
root 0.513301 16.4711 -14.9894 -172.343 -4.91359 -181.908
lowerback -9.36119 -2.73604 -4.51694
upperback 3.88679 -3.15985 0.493948
thorax 9.71117 -1.84273 2.50272
lowerneck -1.13444 -2.11553 -6.53193
upperneck -3.63392 -2.3768 9.76569
head -0.749039 -1.11059 4.39713
rclavicle 4.02912e-014 -1.15544e-014
rhumerus -37.653 -24.0178 -73.4947
rradius 26.4408
rwrist 36.0245
rhand -0.868613 -3.46157
rfingers 7.12502
rthumb 24.7581 -31.8792
lclavicle 4.02912e-014 -1.15544e-014
lhumerus -18.5314 6.60012 90.075
lradius 19.3014
lwrist -27.049
lhand -8.3647 8.39962
lfingers 7.12502
lthumb 17.5579 37.6268
rfemur -37.1461 -4.01322 13.9103
rtibia 34.5442
rfoot -14.485 6.14263
rtoes 3.25436
lfemur -6.74288 2.01784 -25.0428
ltibia 14.2054
lfoot -3.59176 -20.009
ltoes 8.04785
500
root 0.529969 16.4721 -15.119 -172.766 -5.40459 -182.077
lowerback -8.84531 -2.76617 -4.65606
upperback 3.8865 -3.21172 0.482816
thorax 9.41964 -1.8742 2.58082
lowerneck -0.845514 -2.16253 -6.53894
upperneck -3.72491 -2.44867 9.79591
head -0.82372 -1.15509 4.41481
rclavicle 5.57218e-015 1.02374e-014
rhumerus -38.3168 -24.8861 -72.6606
rradius 25.9673
rwrist 36.8423
rhand -0.812466 -3.33378
rfingers 7.12502
rthumb 24.8119 -31.7441
lclavicle 5.57218e-015 1.02374e-014
lhumerus -19.0952 7.46068 89.9747
lradius 18.6147
lwrist -28.1773
lhand -8.14084 8.25775
lfingers 7.12502
lthumb 17.7733 37.4655
rfemur -36.3626 -3.71316 13.3823
rtibia 32.0333
rfoot -14.6056 5.99702
rtoes 0.316736
lfemur -5.07166 1.80857 -25.0316
ltibia 12.8975
lfoot -3.40381 -20.0837
ltoes 7.83265
501
root 0.548955 16.4757 -15.2505 -172.951 -5.85347 -182.201
lowerback -8.57655 -2.78372 -4.69164
upperback 3.80858 -3.24116 0.436371
thorax 9.17789 -1.88375 2.55973
lowerneck -0.873806 -2.33175 -6.51769
upperneck -3.51031 -2.69304 9.83452
head -0.726284 -1.27731 4.41957
rclavicle -4.33288e-014 -6.75868e-015
rhumerus -38.963 -25.7818 -71.8326
rradius 25.383
rwrist 37.777
rhand -0.752311 -3.10136
rfingers 7.12502
rthumb 24.8696 -31.5037
lclavicle -4.33288e-014 -6.75868e-015
lhumerus -19.7764 8.28462 89.7352
lradius 18.0633
lwrist -29.1677
lhand -7.86217 8.21111
lfingers 7.12502
lthumb 18.0415 37.3944
rfemur -35.8045 -3.33185 12.9099
rtibia 29.774
rfoot -14.3343 5.73732
rtoes 1.27457
lfemur -3.55594 1.5498 -24.9727
ltibia 11.382
lfoot -3.03758 -20.0849
ltoes 8.33668
502
root 0.571767 16.4731 -15.3835 -173.183 -6.36768 -182.318
lowerback -8.19085 -2.80945 -4.68444
upperback 3.70085 -3.29028 0.346105
thorax 8.83154 -1.89687 2.47133
lowerneck -0.793099 -2.50784 -6.41743
upperneck -3.31467 -2.94964 9.86964
head -0.654767 -1.40894 4.40891
rclavicle -4.15646e-014 7.40473e-015
rhumerus -39.7015 -26.4753 -71.1485
rradius 24.9291
rwrist 38.5092
rhand -0.609018 -3.18305
rfingers 7.12502
rthumb 25.0069 -31.5663
lclavicle -4.15646e-014 7.40473e-015
lhumerus -20.5482 9.05437 89.3464
lradius 17.5596
lwrist -30.0393
lhand -7.6324 8.22418
lfingers 7.12502
lthumb 18.2625 37.3869
rfemur -35.1932 -2.98562 12.4705
rtibia 27.8785
rfoot -14.2155 5.40403
rtoes 3.60239
lfemur -1.78468 1.05689 -24.8747
ltibia 9.42404
lfoot -2.49675 -19.8571
ltoes 8.27167
503
root 0.597397 16.4653 -15.5209 -173.443 -6.92881 -182.485
lowerback -7.82962 -2.87958 -4.81154
upperback 3.62809 -3.38777 0.309011
thorax 8.5556 -1.94526 2.5055
lowerneck -0.513487 -2.52511 -6.34473
upperneck -3.38696 -2.98039 9.87497
head -0.726809 -1.43285 4.40211
rclavicle 5.479e-015 9.74045e-015
rhumerus -40.3532 -27.0859 -70.4305
rradius 24.5012
rwrist 39.2525
rhand -0.593774 -3.25689
rfingers 7.12502
rthumb 25.0215 -31.6381
lclavicle 5.479e-015 9.74045e-015
lhumerus -21.2246 10.0886 88.9372
lradius 16.9842
lwrist -31.0164
lhand -7.42822 8.32877
lfingers 7.12502
lthumb 18.4589 37.473
rfemur -34.5454 -2.75344 12.0542
rtibia 26.3455
rfoot -14.467 5.04471
rtoes 4.53238
lfemur 0.219281 0.505691 -24.8275
ltibia 7.09185
lfoot -1.66989 -19.5554
ltoes 8.55537
504
root 0.623899 16.4575 -15.6646 -173.57 -7.42142 -182.696
lowerback -7.69389 -2.97147 -5.05778
upperback 3.55158 -3.49168 0.318107
thorax 8.42059 -2.00561 2.6447
lowerneck -0.173855 -2.52992 -6.54881
upperneck -3.596 -2.98156 10.0695
head -0.850182 -1.44135 4.52342
rclavicle -5.40446e-015 -6.95746e-016
rhumerus -40.9429 -27.585 -69.7052
rradius 24.1949
rwrist 39.8544
rhand -0.551653 -3.2922
rfingers 7.12502
rthumb 25.0619 -31.6678
lclavicle -5.40446e-015 -6.95746e-016
lhumerus -21.9314 11.6275 88.3955
lradius 16.4677
lwrist -32.4006
lhand -7.26199 8.40602
lfingers 7.12502
lthumb 18.6188 37.535
rfemur -34.063 -2.53492 11.6418
rtibia 25.1514
rfoot -14.8878 4.80326
rtoes 3.14942
lfemur 2.45153 0.00278669 -24.8493
ltibia 4.11233
lfoot -0.410208 -19.081
ltoes 9.76299
505
root 0.65347 16.4479 -15.8122 -173.615 -7.88154 -182.88
lowerback -7.68604 -3.05041 -5.28371
upperback 3.48171 -3.57209 0.313136
thorax 8.36382 -2.05365 2.75527
lowerneck -0.261326 -2.67283 -6.50163
upperneck -3.43478 -3.18716 10.0054
head -0.764462 -1.54264 4.48523
rclavicle 3.16068e-014 -1.3418e-015
rhumerus -41.5328 -28.1714 -68.9802
rradius 23.9312
rwrist 40.4917
rhand -0.454257 -3.31702
rfingers 7.12502
rthumb 25.1552 -31.6796
lclavicle 3.16068e-014 -1.3418e-015
lhumerus -22.5542 13.3684 87.6484
lradius 15.8376
lwrist -34.1488
lhand -7.35791 8.24242
lfingers 7.12502
lthumb 18.5266 37.3802
rfemur -33.6718 -2.32524 11.3192
rtibia 24.2988
rfoot -14.5704 4.78364
rtoes 3.70939
lfemur 5.19876 -0.479559 -24.8522
ltibia 4.77083e-015
lfoot 1.40892 -18.2675
ltoes 10.748
506
root 0.686014 16.4355 -15.9624 -173.54 -8.29994 -183.038
lowerback -7.85714 -3.11633 -5.48293
upperback 3.41746 -3.62646 0.315593
thorax 8.41419 -2.08897 2.85396
lowerneck -0.0350669 -2.41302 -6.61447
upperneck -3.65919 -3.20135 10.1769
head -0.878491 -1.72165 4.58202
rclavicle 3.36816e-014 -2.08724e-015
rhumerus -42.0345 -28.8618 -68.2218
rradius 23.6067
rwrist 41.3251
rhand -0.351392 -3.25707
rfingers 7.12502
rthumb 25.2538 -31.6058
lclavicle 3.36816e-014 -2.08724e-015
lhumerus -23.0319 15.241 86.7909
lradius 15.0421
lwrist -36.1044
lhand -7.54118 8.03346
lfingers 7.12502
lthumb 18.3503 37.1879
rfemur -33.3765 -2.27189 11.1717
rtibia 23.7413
rfoot -14.3891 4.94104
rtoes 1.4446
lfemur 5.72368 -0.922971 -24.7892
ltibia -1.11319e-014
lfoot 1.32888 -18.2413
ltoes 11.8356
